# xmcd
#
# Track frame offsets: 
#        187
#        16152
#        30857
#        49325
#        61065
#        76897
#        95440
#        110537
#        127392
#        140910
#
# Disc length: 2102 seconds
#
# Revision: 5
# Processed by: cddbd v1.5.2PL0 Copyright (c) Steve Scherf et al.
# Submitted via: ExactAudioCopy v1.1
#
DISCID=8208340a
DTITLE=Earl Thomas Conley - Yours Truly
DYEAR=1991
DGENRE=Country
TTITLE0=You Got Me Now
TTITLE1=Brotherly Love (ft. Keith Whitley)
TTITLE2=One Of Those Days
TTITLE3=Hard Days And Honky Tonk Nights
TTITLE4=Keep My Heart In Line
TTITLE5=If Only Your Eyes Could Lie
TTITLE6=The Perfect Picture (To Fit My Frame Of Mind)
TTITLE7=Borrowed Money
TTITLE8=Shadow Of A Doubt
TTITLE9=I Wanna Be Loved Back
EXTD=YEAR: 1991
EXTT0=
EXTT1=
EXTT2=
EXTT3=
EXTT4=
EXTT5=
EXTT6=
EXTT7=
EXTT8=
EXTT9=
PLAYORDER=
